<?xml version="1.0" encoding="UTF-8" standalone="no"?>
<!-- Created with Inkscape (http://www.inkscape.org/) -->

<svg
   version="1.1"
   id="svg906"
   width="210mm"
   height="297mm"
   viewBox="0 0 793.70079 1122.5197"
   sodipodi:docname="tahseen-logo.svg"
   inkscape:version="1.2-dev (9ee32be, 2021-06-19)"
   xmlns:inkscape="http://www.inkscape.org/namespaces/inkscape"
   xmlns:sodipodi="http://sodipodi.sourceforge.net/DTD/sodipodi-0.dtd"
   xmlns="http://www.w3.org/2000/svg"
   xmlns:svg="http://www.w3.org/2000/svg">
  <sodipodi:namedview
     id="namedview3912"
     pagecolor="#505050"
     bordercolor="#eeeeee"
     borderopacity="1"
     inkscape:pageshadow="0"
     inkscape:pageopacity="0"
     inkscape:pagecheckerboard="0"
     inkscape:document-units="mm"
     showgrid="false"
     inkscape:zoom="0.10779736"
     inkscape:cx="2922.1494"
     inkscape:cy="2217.1229"
     inkscape:window-width="1316"
     inkscape:window-height="814"
     inkscape:window-x="33"
     inkscape:window-y="25"
     inkscape:window-maximized="0"
     inkscape:current-layer="svg906" />
  <defs
     id="defs910" />
  <path
     style="fill:#ffffff;fill-opacity:1;stroke:none;stroke-width:2.96208"
     d="m 2245.6997,733.91625 v 642.77205 h 109.597 v -213.27 c 0,-22.3341 -8.4804,-65.9655 1.481,-85.9003 6.3152,-12.6186 23.1635,-22.2749 34.0641,-30.5985 30.1569,-23.045 85.5982,-57.99749 121.4453,-25.6812 27.7163,24.9704 23.6966,69.6387 23.6966,103.673 v 251.777 h 112.5592 v -234.0044 c 0,-46.0309 4.295,-94.4018 -6.9104,-139.2181 -20.5333,-82.13855 -103.8774,-109.00463 -179.7008,-86.8778 -43.036,12.52957 -69.6356,41.76526 -106.635,63.18118 V 733.91625 h -109.597 m -1060.4259,44.43129 v 112.55907 h 183.6491 v 485.78169 h 121.4455 V 890.90661 h 183.6492 V 778.34754 h -488.7438 m 547.9854,213.26995 88.8625,53.31761 c 27.3341,-47.21579 139.2475,-69.46093 176.7386,-20.7347 13.0036,16.9136 12.8347,41.8247 12.8347,62.2038 -76.6409,0 -194.0757,4.5023 -251.7771,62.2037 -60.7138,60.7228 -39.1321,183.2937 32.583,224.141 72.0438,41.0247 172.7279,11.9075 228.0803,-43.4538 v 47.3932 h 103.673 v -269.5495 c 0,-44.9349 1.0989,-101.5996 -27.6451,-139.21793 -56.7832,-74.31878 -197.9768,-68.95734 -277.4495,-42.44672 -33.7529,11.22645 -72.0882,31.16122 -85.9004,66.14334 M 2826.268,1252.2808 c -23.0629,9.0937 -44.3306,29.5617 -65.1659,43.4537 -6.3063,4.2062 -18.6434,9.3306 -16.7861,18.75 2.1089,10.6932 17.8524,22.5119 25.6723,29.1173 29.6534,25.1185 68.4805,37.7371 106.635,41.9728 102.0438,11.3448 239.9288,-7.3459 239.9288,-139.2179 0,-19.9052 -2.3696,-37.6185 -9.8637,-56.2797 -29.7098,-73.7261 -126.0662,-82.6716 -191.5579,-102.6954 -23.4302,-7.1385 -63.587,-21.8602 -52.3312,-54.2948 7.1149,-20.4978 30.4681,-27.5178 49.369,-29.621 48.1932,-5.36131 82.6718,8.7678 115.5214,44.4314 21.6824,-11.9669 41.6764,-29.1766 62.2037,-43.4538 5.5094,-3.8212 19.6089,-10.87099 19.2535,-18.74996 -0.4442,-10.07117 -15.6991,-20.4088 -22.2156,-26.65892 -28.5249,-27.31045 -65.9065,-37.55924 -103.6729,-45.40868 -117.506,-24.49639 -262.1,38.68479 -227.0941,178.70256 20.9508,83.7973 120.7494,93.8388 188.587,115.5211 24.2002,7.7311 73.2523,20.2015 61.2262,56.2797 -8.7381,26.2145 -38.122,30.3317 -61.2262,32.583 -41.647,4.0579 -95.2458,-4.295 -118.4833,-44.4314 m 776.0658,56.2796 -79.9762,-56.2796 h -2.9622 c -41.0544,41.0546 -133.9157,61.5817 -180.687,14.8106 -26.0366,-26.0369 -23.3116,-56.8425 -32.583,-88.8627 h 302.1326 c 0,-68.0687 4.0877,-144.3718 -39.4846,-201.42161 -67.3281,-88.12207 -243.2166,-92.20972 -318.9274,-11.84832 -45.3792,48.16353 -53.1696,112.29263 -59.2419,174.76293 -6.9015,70.9123 15.2252,164.3957 74.0523,209.3304 46.0603,35.1896 110.0709,44.9052 165.8766,39.4846 55.2132,-5.3614 153.6728,-11.1078 171.8008,-79.9763 m 494.6677,0 -79.9761,-56.2796 h -2.9621 c -42.506,42.506 -137.0557,61.2855 -183.6492,11.8484 -21.7121,-23.045 -27.2511,-55.776 -29.6209,-85.9005 h 302.1325 c 0,-70.9123 3.6137,-153.8209 -47.3933,-210.30783 -71.86,-79.62084 -241.232,-80.56877 -313.9808,0 -39.455,43.69063 -50.7997,103.49513 -56.2796,159.95243 -8.3531,85.7819 15.8768,193.276 97.7488,236.4632 35.6042,18.7795 70.7048,20.4087 109.5971,24.2002 61.4039,5.9833 182.9679,-6.013 204.3836,-79.9763 m 216.2322,-328.79122 v -56.27967 h -109.5971 v 453.19879 h 109.5971 v -213.27 c 0,-22.3341 -8.4716,-65.9655 1.481,-85.9003 6.3092,-12.6186 23.1635,-22.2749 34.0639,-30.5985 30.1541,-23.045 85.6042,-57.99749 121.4454,-25.6812 28.1103,25.3555 23.6968,69.1054 23.6968,103.673 v 251.777 H 4606.48 v -234.0044 c 0,-46.9491 4.5319,-96.4752 -6.9017,-142.1801 -21.416,-85.6043 -110.7227,-102.7548 -185.6338,-81.96089 -40.6102,11.2855 -66.0248,41.1434 -100.7108,61.22627 m -817.5349,121.44542 h -186.6112 c 8.3529,-28.8507 9.7156,-63.6552 35.5449,-83.9159 32.1682,-25.23684 97.4229,-26.00707 127.3696,3.9396 21.3269,21.3271 23.6967,51.6883 23.6967,79.9763 m 494.6677,0 h -186.6112 c 5.2429,-28.5249 9.4194,-61.641 32.5829,-81.9608 32.4644,-28.436 102.9325,-28.52498 132.3162,4.9466 18.8093,21.4455 21.7121,49.763 21.7121,77.0142 m -1978.6715,65.1658 c 0,22.2156 8.5398,66.1434 -1.4809,85.9004 -6.3448,12.5 -25.2075,21.09 -37.0262,27.1624 -31.872,16.3803 -81.9549,34.6859 -115.5212,10.3673 -35.8146,-25.9479 -10.7879,-86.4336 20.7346,-102.1919 18.0035,-9.0048 39.8311,-10.545 59.2416,-14.3365 23.0776,-4.4728 50.5717,-6.9017 74.0521,-6.9017 z"
     id="path1158"
     inkscape:export-filename="/Users/abdullah/Documents/tahseen/react-tahseen/src/assets/tahseen-logo.png"
     inkscape:export-xdpi="96"
     inkscape:export-ydpi="96" />
  <path
     style="fill:#ffffff;fill-opacity:1;stroke:none;stroke-width:2.96208"
     d="m 458.92589,524.59468 c -104.20317,24.60606 -60.67828,185.77298 44.43122,160.95073 99.2772,-23.45968 56.42474,-184.7629 -44.43122,-160.95073 m 204.38374,0 C 559.222,546.2801 600.56379,713.80372 707.74085,685.54541 803.96711,660.13076 762.64601,503.90154 663.30963,524.59468 M 900.27628,778.34754 V 1246.3567 H 509.2813 c -61.65284,0 -135.64272,11.0189 -195.49753,-3.9396 -19.60602,-4.917 -36.03344,-14.5142 -50.35541,-28.6433 -81.42234,-80.3022 -25.53316,-206.6646 41.46916,-275.47375 v -2.96209 L 195.30044,831.66491 h -2.96208 C 150.53329,872.36394 114.29101,911.73005 89.159223,964.95877 22.842624,1105.3912 61.381702,1316.3803 216.03502,1378.6729 c 65.20346,26.244 135.39981,21.7121 204.38377,21.7121 h 299.17037 257.70131 62.20373 c 6.1937,0 18.0272,2.3697 22.2156,-3.4656 6.1108,-8.4717 1.4811,-33.6196 1.4811,-43.9277 V 1234.5084 778.34754 H 900.27628"
     id="path1158-2"
     inkscape:export-filename="/Users/abdullah/Documents/tahseen/react-tahseen/src/assets/tahseen-logo.png"
     inkscape:export-xdpi="96"
     inkscape:export-ydpi="96" />
</svg>
